Coordinates
version=1
nRows=19
nColumns=36
inDegrees=yes

Units are S.I. units (second, meters, Newtons, ...)
If the header above contains a line with 'inDegrees', this indicates whether rotational values are in degrees (yes) or radians (no).

endheader
time	pelvis_tilt	pelvis_list	pelvis_rotation	pelvis_tx	pelvis_ty	pelvis_tz	hip_flexion_r	hip_adduction_r	hip_rotation_r	knee_angle_r	knee_angle_r_beta	ankle_angle_r	subtalar_angle_r	mtp_angle_r	hip_flexion_l	hip_adduction_l	hip_rotation_l	knee_angle_l	knee_angle_l_beta	ankle_angle_l	subtalar_angle_l	mtp_angle_l	lumbar_extension	lumbar_bending	lumbar_rotation	arm_flex_r	arm_add_r	arm_rot_r	elbow_flex_r	pro_sup_r	arm_flex_l	arm_add_l	arm_rot_l	elbow_flex_l	pro_sup_l
      4.91250000	     -2.91975930	     14.72451972	    -63.45737566	      0.34665129	      0.88839961	     -0.03375991	     40.28696968	     -4.62505359	      4.32206978	     15.87071426	      0.27699622	    -13.88195548	    -33.50943339	     -7.49999987	     11.16305352	      0.97484829	    -38.40814684	     13.32208430	      0.23251423	      2.10889411	    -33.73972724	     -7.49999987	      0.83576247	     -4.27123765	     -5.85580230	     67.45003860	    -11.59386070	      7.28430831	    143.96702743	     94.08080834	     72.16223895	    -25.67708464	     29.05741918	    121.98014076	     97.67619670
      4.91666670	     -3.00838248	     14.75937812	    -63.78040570	      0.35139914	      0.89117493	     -0.02936040	     40.33638971	     -4.42549788	      4.35036464	     16.07072506	      0.28048707	    -14.12739894	    -33.43766634	     -7.49999987	     10.90468278	      0.95202815	    -38.40033953	     13.17826225	      0.23000407	      2.04604580	    -33.74563371	     -7.49999987	      0.96061449	     -4.11039492	     -6.09694309	     67.27195645	    -11.57539525	      7.45852376	    144.25621352	     94.08355730	     71.96588428	    -25.37060581	     29.34649082	    122.42532009	     97.69292996
      4.92083330	     -3.03621292	     14.91634864	    -64.41661357	      0.35073307	      0.88823621	     -0.02853777	     40.62400143	     -4.15741308	      4.58911357	     16.30912170	      0.28464787	    -14.26918881	    -33.40744318	     -7.49999987	     10.83765332	      0.90836617	    -38.54758425	     13.28784546	      0.23191665	      2.18860979	    -33.83136884	     -7.49999987	      1.11164739	     -3.93257303	     -6.04310059	     67.32852070	    -11.66839858	      7.85006576	    144.72171188	     92.52311070	     72.58157404	    -25.46617248	     29.64646454	    123.31398150	     95.82091048
      4.92500000	     -3.19218961	     14.87987936	    -64.77053191	      0.34695605	      0.89060538	     -0.02354655	     40.55922382	     -3.73906986	      4.56191043	     16.43970045	      0.28692690	    -14.34081092	    -33.32930472	     -7.49999987	     10.83379714	      0.58853239	    -38.63397591	     13.65059966	      0.23824791	      2.23868942	    -33.93704987	     -7.49999987	      1.22412063	     -3.68613950	     -6.06611810	     66.88815972	    -11.29163747	      7.86136902	    144.96268234	     92.62943589	     72.85769628	    -25.26002998	     29.90279894	    123.27338014	     96.00194035
      4.92916670	     -3.13437404	     14.77627637	    -65.24003276	      0.34619670	      0.89065823	     -0.02278342	     40.45434256	     -3.40061444	      4.68209299	     16.62130365	      0.29009647	    -14.21817334	    -33.23636062	     -7.49999987	     10.68830607	      0.35199276	    -38.57986673	     14.10531559	      0.24618420	      2.41528116	    -33.97607731	     -7.49999987	      1.21581320	     -3.61302959	     -5.39358378	     66.52742216	    -11.34516234	      7.55905311	    145.37384438	     93.49141951	     73.37791165	    -24.64764786	     30.39344552	    123.14385659	     97.86956060
      4.93333330	     -3.05922177	     14.64480686	    -65.69230171	      0.35034860	      0.88749985	     -0.01838619	     40.35251524	     -3.21594500	      4.69732245	     16.94249697	      0.29570236	    -14.25418823	    -33.12533738	     -7.49999987	     10.50673486	      0.13909527	    -38.55527916	     14.66857915	      0.25601500	      2.44467117	    -34.06578233	     -7.49999987	      1.32492122	     -3.37428312	     -4.96920440	     66.34364252	    -11.28128111	      7.62064545	    145.49580296	     93.47602085	     73.31802060	    -24.61658237	     30.45265473	    123.49571148	     97.88270526
      4.93750000	     -3.16791364	     14.55021748	    -66.13050682	      0.35367380	      0.88478883	     -0.01320639	     40.28345088	     -2.91020942	      4.88798532	     17.30892600	      0.30209775	    -13.88128992	    -32.96930285	     -7.49999987	     10.48239401	     -0.29558294	    -38.61968688	     15.63555107	      0.27289185	      3.12115820	    -34.12320177	     -7.49999987	      1.57835808	     -2.73967826	     -4.57403527	     66.29623630	    -11.76381029	      7.41438553	    145.77887185	     93.34978713	     73.05449755	    -24.41108241	     30.29146031	    124.20867072	     97.91361518
      4.94166670	     -3.14916356	     14.57683752	    -66.19661509	      0.34880682	      0.88443468	     -0.01768614	     40.50098016	     -2.94623643	      4.78166089	     17.60936092	      0.30734133	    -13.55999183	    -32.83908092	     -7.49999987	     10.76151848	     -0.58084334	    -38.46813141	     16.57216925	      0.28923892	      3.51294635	    -34.15934643	     -7.49999987	      1.56927177	     -2.44683795	     -4.37557929	     66.52627107	    -12.01377947	      7.20994357	    145.79677687	     93.12240395	     73.23536701	    -23.96829095	     30.11844117	    124.07513778	     97.94594357
      4.94583330	     -3.23094680	     14.42049783	    -66.17608869	      0.34836075	      0.88247362	     -0.00761936	     40.30239512	     -2.74887369	      4.60966275	     17.87460977	      0.31197079	    -13.04002992	    -32.72345711	     -7.49999987	     10.71754121	     -1.11704356	    -38.33281992	     17.48143172	      0.30510854	      3.84588265	    -34.21270279	     -7.49999987	      1.96034808	     -2.25871531	     -4.09952381	     66.20166983	    -12.01078823	      7.41908329	    145.92547818	     92.07794965	     72.76875987	    -23.93295794	     30.11523878	    124.05564363	     97.03531036
      4.95000000	     -3.47137463	     14.18379225	    -65.98085473	      0.34859070	      0.88606319	      0.00129314	     39.67439796	     -2.48366005	      4.24917014	     17.81403122	      0.31091350	    -12.57458613	    -32.70206405	     -7.49999987	     10.37026803	     -1.74173831	    -38.22901056	     17.90447834	      0.31249210	      3.84883927	    -34.20839990	     -7.49999987	      2.37029050	     -1.97356821	     -4.20413090	     65.24144772	    -11.89746502	      7.67176360	    146.34126362	     91.99473957	     72.43827729	    -23.28740384	     30.32393925	    123.61669945	     97.13044328
      4.95416670	     -3.63754826	     14.09520656	    -65.85220517	      0.34422636	      0.88706952	      0.00561802	     39.23638705	     -2.14832494	      4.00634591	     17.71564319	      0.30919630	    -12.21781930	    -32.74297538	     -7.49999987	     10.07728087	     -2.28685719	    -38.23997388	     18.02094088	      0.31452475	      3.39655877	    -34.18302936	     -7.49999987	      2.76697396	     -2.03005167	     -4.34764868	     64.36897975	    -11.65568263	      8.21657516	    146.87738202	     91.96925215	     72.32426434	    -22.86330650	     30.68229389	    123.19368954	     97.17396330
      4.95833330	     -3.93831281	     14.16655272	    -65.79675471	      0.34037737	      0.88366378	      0.01032558	     39.11526730	     -1.63258893	      3.69232791	     17.72595742	      0.30937632	    -11.63390469	    -32.83470681	     -7.49999987	     10.12241125	     -3.14982227	    -38.46329203	     18.55414495	      0.32383092	      3.17176916	    -34.20168465	     -7.49999987	      3.09157604	     -2.17726258	     -4.67456497	     63.86111002	    -11.29564820	      8.58740640	    147.29411177	     91.95838717	     73.03511513	    -22.41423329	     31.32225590	    122.48755771	     97.19236216
      4.96250000	     -4.17645619	     14.24849516	    -65.73965884	      0.33986976	      0.88091693	      0.01039930	     39.18879827	     -1.22336266	      3.59059844	     17.91168428	      0.31261787	    -11.16974982	    -32.89533398	     -7.49999987	     10.27655407	     -3.89858228	    -38.61991623	     19.22199065	      0.33548703	      3.06351770	    -34.21187441	     -7.49999987	      3.28884808	     -2.23090700	     -5.00976203	     63.62931288	    -11.03913741	      8.66360303	    147.49761374	     91.94740430	     73.63109018	    -21.92867360	     31.69560454	    121.93037563	     97.18980580
      4.96666670	     -4.31914435	     14.24753617	    -65.83145885	      0.33639332	      0.88454496	      0.01457650	     39.22093742	     -0.71275480	      3.73931608	     18.16504214	      0.31703979	    -10.79412641	    -33.06185476	     -7.49999987	     10.20961615	     -4.51321914	    -38.83246034	     19.44291418	      0.33934287	      2.90790993	    -34.20451639	     -7.49999987	      3.41929232	     -2.50199059	     -5.14697778	     63.32867195	    -10.96755655	      8.78410828	    147.71866881	     91.95443824	     73.58683426	    -21.65779201	     32.04723630	    122.11751297	     97.18804566
      4.97083330	     -4.41976865	     14.60179447	    -66.05891617	      0.34035414	      0.88446585	      0.00968471	     39.88248458	     -0.56893862	      3.95967105	     18.60743150	      0.32476094	    -10.77436255	    -33.03411120	     -7.49999987	     10.44703068	     -4.56396596	    -39.04382425	     19.44656187	      0.33940653	      2.96224348	    -34.19521712	     -7.49999987	      3.71538584	     -2.74400979	     -5.16156764	     63.32279425	    -11.53705229	      8.42029862	    147.88736401	     91.90658089	     73.72866521	    -21.31979870	     32.62108521	    122.32994698	     97.07852972
      4.97500000	     -4.44547171	     14.29847826	    -66.06172272	      0.34145736	      0.89341515	      0.01805859	     39.33176580	     -0.43755331	      3.95325363	     18.47529924	      0.32245480	    -10.98639804	    -32.93435075	     -7.49999987	      9.76997649	     -4.62093578	    -39.08780068	     18.85580512	      0.32909588	      2.52120706	    -34.14983687	     -7.49999987	      3.50049246	     -2.66452917	     -5.45039290	     62.90720197	    -11.85897822	      8.87102713	    148.11864179	     91.62174176	     72.73782421	    -20.93452064	     32.61571201	    122.56666691	     96.01370244
      4.97916670	     -4.42713264	     14.27330145	    -65.95158937	      0.34145233	      0.88965760	      0.01844001	     39.29949192	     -0.47982792	      3.95661227	     18.80007885	      0.32812328	    -11.11045705	    -33.00933926	     -7.49999987	      9.53489085	     -4.50413153	    -39.07571026	     18.58291964	      0.32433313	      2.34111467	    -34.07449338	     -7.49999987	      3.54094943	     -2.77520249	     -5.53278808	     62.77376518	    -12.39703503	      8.38353615	    148.24902867	     91.38838817	     72.13825016	    -20.42800223	     32.59945589	    122.54026553	     96.64380966
      4.98333330	     -4.36796675	     14.15868630	    -66.00011642	      0.34185793	      0.88899825	      0.01813077	     39.32048631	     -0.45917684	      4.22756099	     19.24132083	      0.33582440	    -11.29816551	    -33.08248661	     -7.49999987	      9.37237711	     -4.52100892	    -39.10486733	     18.72895865	      0.32688199	      2.32334624	    -34.05761232	     -7.49999987	      3.37735930	     -2.85242416	     -5.44785127	     62.89762580	    -13.04596317	      7.42121754	    148.25932444	     91.25037378	     72.44172963	    -19.53721359	     33.22475124	    121.66694438	     95.94318597
      4.98750000	     -4.26921871	     14.12746698	    -65.94204788	      0.34175927	      0.88903776	      0.01846766	     39.54122136	     -0.55828084	      4.39475580	     19.76872275	      0.34502930	    -11.24806182	    -33.21283524	     -7.49999987	      9.30138281	     -4.43454795	    -39.09644735	     18.83173168	      0.32867572	      2.34961177	    -34.03557553	     -7.49999987	      3.26263023	     -2.91485839	     -5.50191549	     63.09534767	    -13.58123436	      6.92854753	    148.27394504	     90.66547331	     72.53206468	    -19.00449567	     33.52632702	    121.15656603	     95.71873606
